<svg width="2723" height="2012" viewBox="0 0 2723 2012" version="1.1" xmlns="http://www.w3.org/2000/svg" xmlns:xlink="http://www.w3.org/1999/xlink">
<title>bg-top</title>
<desc>Created using Figma</desc>
<g id="Canvas" transform="translate(6364 3152)">
<g id="bg-top">
<g id="rect9002">
<use xlink:href="#path0_fill" transform="matrix(0.5 0.866025 -0.866025 0.5 -5016.86 -2207.46)" fill="url(#paint0_linear)" fill-opacity="0.2"/>
</g>
<g id="rect9002">
<use xlink:href="#path1_fill" transform="matrix(0.5 0.866025 -0.866025 0.5 -5644.62 -2970.5)" fill="url(#paint1_linear)"/>
</g>
<g id="rect9002">
<use xlink:href="#path2_fill" transform="matrix(0.5 0.866025 -0.866025 0.5 -4252.13 -3170)" fill="url(#paint2_linear)"/>
</g>
</g>
</g>
<defs>
<linearGradient id="paint0_linear" x1="0" y1="0" x2="1" y2="0" gradientUnits="userSpaceOnUse" gradientTransform="matrix(231.626 1785.94 -1381.5 299.436 1054.21 215.458)">
<stop offset="0" stop-color="#C8DEFF"/>
<stop offset="1" stop-color="#CA9FF2"/>
</linearGradient>
<linearGradient id="paint1_linear" x1="0" y1="0" x2="1" y2="0" gradientUnits="userSpaceOnUse" gradientTransform="matrix(-1423.01 -4389.66 1190.57 -4741.5 49.3038 3298.03)">
<stop offset="0" stop-color="#AA00D4"/>
<stop offset="0.983425" stop-color="#0066FF"/>
</linearGradient>
<linearGradient id="paint2_linear" x1="0" y1="0" x2="1" y2="0" gradientUnits="userSpaceOnUse" gradientTransform="matrix(-2917.2 -4373.55 2440.69 -4724.09 101.074 3285.93)">
<stop offset="0" stop-color="#AA00D4"/>
<stop offset="1" stop-color="#0066FF"/>
</linearGradient>
<path id="path0_fill" d="M 667.396 0L 50 0C 22.3858 0 0 22.3858 0 50L 0 877.419C 0 905.033 22.3858 927.419 50 927.419L 667.396 927.419C 695.01 927.419 717.396 905.033 717.396 877.419L 717.396 50C 717.396 22.3858 695.01 0 667.396 0Z"/>
<path id="path1_fill" d="M 563.959 0L 50 0C 22.3858 0 0 22.3858 0 50L 0 801.459C 0 829.073 22.3858 851.459 50 851.459L 563.959 851.459C 591.573 851.459 613.959 829.073 613.959 801.459L 613.959 50C 613.959 22.3858 591.573 0 563.959 0Z"/>
<path id="path2_fill" d="M 1208.63 0L 50 0C 22.3858 0 0 22.3858 0 50L 0 798.334C 0 825.948 22.3858 848.334 50 848.334L 1208.63 848.334C 1236.25 848.334 1258.63 825.948 1258.63 798.334L 1258.63 50C 1258.63 22.3858 1236.25 0 1208.63 0Z"/>
</defs>
</svg>
